<svg width="131" height="39" viewBox="0 0 131 39" fill="none" xmlns="http://www.w3.org/2000/svg">
<path d="M3.74927 19.8102C3.74927 10.9188 11.0213 3.7144 19.9961 3.7144C24.9248 3.7144 29.338 5.88888 32.3218 9.3247C32.9936 10.1063 34.1808 10.1914 34.9619 9.5259C35.743 8.8604 35.8368 7.68417 35.165 6.91034C31.5017 2.67747 26.0652 0 19.9961 0C8.95138 0 0 8.86814 0 19.8102V22.9055C0 23.9347 0.835774 24.7627 1.87463 24.7627C2.91349 24.7627 3.74927 23.9347 3.74927 22.9055V19.8102ZM39.5626 15.7166C39.3517 14.7106 38.3519 14.0683 37.3443 14.285C36.3367 14.5017 35.6805 15.4844 35.8992 16.4827C36.1258 17.5583 36.2507 18.6726 36.2507 19.8179V22.9132C36.2507 23.9424 37.0865 24.7704 38.1254 24.7704C39.1642 24.7704 40 23.9424 40 22.9132V19.8179C40 18.4173 39.8516 17.0476 39.5704 15.7243L39.5626 15.7166ZM19.9961 6.19067C18.512 6.19067 17.0748 6.42282 15.7391 6.85617C14.5518 7.24309 14.2785 8.69016 15.0908 9.63424C15.6454 10.2765 16.5593 10.47 17.3872 10.2456C18.2152 10.0212 19.09 9.90508 19.9961 9.90508C25.5185 9.90508 29.9941 14.3391 29.9941 19.8102V21.737C29.9941 23.6871 29.877 25.6294 29.6505 27.564C29.5177 28.6938 30.3847 29.7152 31.5407 29.7152C32.4624 29.7152 33.2513 29.0497 33.3607 28.1444C33.6184 26.024 33.7512 23.8883 33.7512 21.7447V19.8179C33.7512 12.2962 27.5962 6.19841 20.0039 6.19841L19.9961 6.19067ZM11.7711 11.5069C11.0603 10.6867 9.79496 10.6247 9.12322 11.476C7.31888 13.7743 6.24878 16.6684 6.24878 19.8102V21.737C6.24878 23.6097 6.04569 25.4824 5.63952 27.3009C5.37395 28.5081 6.25659 29.7152 7.50635 29.7152C8.3265 29.7152 9.06073 29.1736 9.24038 28.3765C9.74029 26.202 9.99805 23.9811 9.99805 21.737V19.8102C9.99805 17.7053 10.662 15.7553 11.7868 14.1534C12.3492 13.3486 12.4116 12.2498 11.7711 11.5069ZM19.9961 12.3813C15.8563 12.3813 12.4976 15.7088 12.4976 19.8102V21.737C12.4976 24.5151 12.1383 27.2699 11.4196 29.9474C11.1228 31.054 11.943 32.1915 13.099 32.1915C13.841 32.1915 14.4972 31.7117 14.6924 30.9998C15.5126 27.9818 15.9344 24.871 15.9344 21.737V19.8102C15.9344 17.5893 17.7543 15.7862 19.9961 15.7862C22.2378 15.7862 24.0578 17.5893 24.0578 19.8102V21.737C24.0578 24.546 23.7844 27.3396 23.2455 30.0867C23.0346 31.1623 23.8469 32.1915 24.9483 32.1915C25.745 32.1915 26.4323 31.6498 26.5886 30.876C27.19 27.8735 27.4946 24.8169 27.4946 21.737V19.8102C27.4946 15.7088 24.1359 12.3813 19.9961 12.3813ZM21.8707 19.8102C21.8707 18.781 21.035 17.953 19.9961 17.953C18.9572 17.953 18.1215 18.781 18.1215 19.8102V21.737C18.1215 26.3723 17.2623 30.9688 15.5829 35.2946L15.122 36.4785C14.7471 37.4381 15.2314 38.5137 16.2 38.8774C17.1685 39.2411 18.2542 38.7691 18.6214 37.8095L19.0822 36.6256C20.9256 31.8742 21.8707 26.8288 21.8707 21.737V19.8102Z" fill="#0079FF"/>
<path d="M51.952 21.872H47.504L46.768 24H44.416L48.432 12.816H51.04L55.056 24H52.688L51.952 21.872ZM51.344 20.08L49.728 15.408L48.112 20.08H51.344ZM59.1651 16.976V21.264C59.1651 21.5627 59.2345 21.7813 59.3731 21.92C59.5225 22.048 59.7678 22.112 60.1091 22.112H61.1491V24H59.7411C57.8531 24 56.9091 23.0827 56.9091 21.248V16.976H55.8531V15.136H56.9091V12.944H59.1651V15.136H61.1491V16.976H59.1651ZM65.3683 16.976V21.264C65.3683 21.5627 65.4376 21.7813 65.5763 21.92C65.7256 22.048 65.9709 22.112 66.3123 22.112H67.3523V24H65.9443C64.0563 24 63.1123 23.0827 63.1123 21.248V16.976H62.0563V15.136H63.1123V12.944H65.3683V15.136H67.3523V16.976H65.3683ZM77.2034 19.376C77.2034 19.696 77.182 19.984 77.1394 20.24H70.6594C70.7127 20.88 70.9367 21.3813 71.3314 21.744C71.726 22.1067 72.2114 22.288 72.7874 22.288C73.6194 22.288 74.2114 21.9307 74.5634 21.216H76.9794C76.7234 22.0693 76.2327 22.7733 75.5074 23.328C74.782 23.872 73.8914 24.144 72.8354 24.144C71.982 24.144 71.214 23.9573 70.5314 23.584C69.8594 23.2 69.3314 22.6613 68.9474 21.968C68.574 21.2747 68.3874 20.4747 68.3874 19.568C68.3874 18.6507 68.574 17.8453 68.9474 17.152C69.3207 16.4587 69.8434 15.9253 70.5154 15.552C71.1874 15.1787 71.9607 14.992 72.8354 14.992C73.678 14.992 74.43 15.1733 75.0914 15.536C75.7634 15.8987 76.2807 16.416 76.6434 17.088C77.0167 17.7493 77.2034 18.512 77.2034 19.376ZM74.8834 18.736C74.8727 18.16 74.6647 17.7013 74.2594 17.36C73.854 17.008 73.358 16.832 72.7714 16.832C72.2167 16.832 71.7474 17.0027 71.3634 17.344C70.99 17.6747 70.7607 18.1387 70.6754 18.736H74.8834ZM83.7504 15.008C84.8064 15.008 85.6597 15.344 86.3104 16.016C86.961 16.6773 87.2864 17.6053 87.2864 18.8V24H85.0464V19.104C85.0464 18.4 84.8704 17.8613 84.5184 17.488C84.1664 17.104 83.6864 16.912 83.0784 16.912C82.4597 16.912 81.969 17.104 81.6064 17.488C81.2544 17.8613 81.0784 18.4 81.0784 19.104V24H78.8384V15.136H81.0784V16.24C81.377 15.856 81.7557 15.5573 82.2144 15.344C82.6837 15.12 83.1957 15.008 83.7504 15.008ZM88.8405 19.536C88.8405 18.64 89.0165 17.8453 89.3685 17.152C89.7312 16.4587 90.2218 15.9253 90.8405 15.552C91.4592 15.1787 92.1472 14.992 92.9045 14.992C93.4805 14.992 94.0298 15.12 94.5525 15.376C95.0752 15.6213 95.4912 15.952 95.8005 16.368V12.16H98.0725V24H95.8005V22.688C95.5232 23.1253 95.1338 23.4773 94.6325 23.744C94.1312 24.0107 93.5498 24.144 92.8885 24.144C92.1418 24.144 91.4592 23.952 90.8405 23.568C90.2218 23.184 89.7312 22.6453 89.3685 21.952C89.0165 21.248 88.8405 20.4427 88.8405 19.536ZM95.8165 19.568C95.8165 19.024 95.7098 18.56 95.4965 18.176C95.2832 17.7813 94.9952 17.4827 94.6325 17.28C94.2698 17.0667 93.8805 16.96 93.4645 16.96C93.0485 16.96 92.6645 17.0613 92.3125 17.264C91.9605 17.4667 91.6725 17.7653 91.4485 18.16C91.2352 18.544 91.1285 19.0027 91.1285 19.536C91.1285 20.0693 91.2352 20.5387 91.4485 20.944C91.6725 21.3387 91.9605 21.6427 92.3125 21.856C92.6752 22.0693 93.0592 22.176 93.4645 22.176C93.8805 22.176 94.2698 22.0747 94.6325 21.872C94.9952 21.6587 95.2832 21.36 95.4965 20.976C95.7098 20.5813 95.8165 20.112 95.8165 19.568ZM101.396 14.08C101.002 14.08 100.671 13.9573 100.404 13.712C100.148 13.456 100.02 13.1413 100.02 12.768C100.02 12.3947 100.148 12.0853 100.404 11.84C100.671 11.584 101.002 11.456 101.396 11.456C101.791 11.456 102.116 11.584 102.372 11.84C102.639 12.0853 102.772 12.3947 102.772 12.768C102.772 13.1413 102.639 13.456 102.372 13.712C102.116 13.9573 101.791 14.08 101.396 14.08ZM102.5 15.136V24H100.26V15.136H102.5ZM108.777 16.976H107.225V24H104.953V16.976H103.945V15.136H104.953V14.688C104.953 13.6 105.263 12.8 105.881 12.288C106.5 11.776 107.433 11.536 108.681 11.568V13.456C108.137 13.4453 107.759 13.536 107.545 13.728C107.332 13.92 107.225 14.2667 107.225 14.768V15.136H108.777V16.976ZM118.709 15.136L113.221 28.192H110.837L112.757 23.776L109.205 15.136H111.717L114.005 21.328L116.325 15.136H118.709Z" fill="white"/>
</svg>
