<svg width="40" height="39" viewBox="0 0 40 39" fill="none" xmlns="http://www.w3.org/2000/svg">
<path d="M3.74927 19.8102C3.74927 10.9188 11.0213 3.7144 19.9961 3.7144C24.9248 3.7144 29.338 5.88888 32.3218 9.3247C32.9936 10.1063 34.1808 10.1914 34.9619 9.5259C35.743 8.8604 35.8368 7.68417 35.165 6.91034C31.5017 2.67747 26.0652 0 19.9961 0C8.95138 0 0 8.86814 0 19.8102V22.9055C0 23.9347 0.835774 24.7627 1.87463 24.7627C2.91349 24.7627 3.74927 23.9347 3.74927 22.9055V19.8102ZM39.5626 15.7166C39.3517 14.7106 38.3519 14.0683 37.3443 14.285C36.3367 14.5017 35.6805 15.4844 35.8992 16.4827C36.1258 17.5583 36.2507 18.6726 36.2507 19.8179V22.9132C36.2507 23.9424 37.0865 24.7704 38.1254 24.7704C39.1642 24.7704 40 23.9424 40 22.9132V19.8179C40 18.4173 39.8516 17.0476 39.5704 15.7243L39.5626 15.7166ZM19.9961 6.19067C18.512 6.19067 17.0748 6.42282 15.7391 6.85617C14.5518 7.24309 14.2785 8.69016 15.0908 9.63424C15.6454 10.2765 16.5593 10.47 17.3872 10.2456C18.2152 10.0212 19.09 9.90508 19.9961 9.90508C25.5185 9.90508 29.9941 14.3391 29.9941 19.8102V21.737C29.9941 23.6871 29.877 25.6294 29.6505 27.564C29.5177 28.6938 30.3847 29.7152 31.5407 29.7152C32.4624 29.7152 33.2513 29.0497 33.3607 28.1444C33.6184 26.024 33.7512 23.8883 33.7512 21.7447V19.8179C33.7512 12.2962 27.5962 6.19841 20.0039 6.19841L19.9961 6.19067ZM11.7711 11.5069C11.0603 10.6867 9.79496 10.6247 9.12322 11.476C7.31888 13.7743 6.24878 16.6684 6.24878 19.8102V21.737C6.24878 23.6097 6.04569 25.4824 5.63952 27.3009C5.37395 28.5081 6.25659 29.7152 7.50635 29.7152C8.3265 29.7152 9.06073 29.1736 9.24038 28.3765C9.74029 26.202 9.99805 23.9811 9.99805 21.737V19.8102C9.99805 17.7053 10.662 15.7553 11.7868 14.1534C12.3492 13.3486 12.4116 12.2498 11.7711 11.5069ZM19.9961 12.3813C15.8563 12.3813 12.4976 15.7088 12.4976 19.8102V21.737C12.4976 24.5151 12.1383 27.2699 11.4196 29.9474C11.1228 31.054 11.943 32.1915 13.099 32.1915C13.841 32.1915 14.4972 31.7117 14.6924 30.9998C15.5126 27.9818 15.9344 24.871 15.9344 21.737V19.8102C15.9344 17.5893 17.7543 15.7862 19.9961 15.7862C22.2378 15.7862 24.0578 17.5893 24.0578 19.8102V21.737C24.0578 24.546 23.7844 27.3396 23.2455 30.0867C23.0346 31.1623 23.8469 32.1915 24.9483 32.1915C25.745 32.1915 26.4323 31.6498 26.5886 30.876C27.19 27.8735 27.4946 24.8169 27.4946 21.737V19.8102C27.4946 15.7088 24.1359 12.3813 19.9961 12.3813ZM21.8707 19.8102C21.8707 18.781 21.035 17.953 19.9961 17.953C18.9572 17.953 18.1215 18.781 18.1215 19.8102V21.737C18.1215 26.3723 17.2623 30.9688 15.5829 35.2946L15.122 36.4785C14.7471 37.4381 15.2314 38.5137 16.2 38.8774C17.1685 39.2411 18.2542 38.7691 18.6214 37.8095L19.0822 36.6256C20.9256 31.8742 21.8707 26.8288 21.8707 21.737V19.8102Z" fill="#0079FF"/>
</svg>
